<?xml version="1.0" encoding="UTF-8"?>
<svg width="98px" height="97px" viewBox="0 0 98 97" version="1.1" xmlns="http://www.w3.org/2000/svg" xmlns:xlink="http://www.w3.org/1999/xlink">
    <!-- Generator: Sketch 41.1 (35376) - http://www.bohemiancoding.com/sketch -->
    <title>Combined Shape</title>
    <desc>Created with Sketch.</desc>
    <defs>
        <linearGradient x1="100%" y1="100%" x2="2.07868304%" y2="2.07868304%" id="linearGradient-1">
            <stop stop-color="#000000" offset="0%"></stop>
            <stop stop-color="#797C77" offset="100%"></stop>
        </linearGradient>
    </defs>
    <g id="Page-1" stroke="none" stroke-width="1" fill="none" fill-rule="evenodd">
        <path d="M66.5684081,96.980951 L58.4224271,96.980951 L76.3724989,69.3402643 L76.3724989,81.291126 L66.5684081,96.980951 Z M69.4642417,96.980951 L76.3724989,96.980951 L76.3724989,85.9254284 L69.4642417,96.980951 Z M55.4942141,96.980951 L48.5992027,96.980951 L58.1885706,82.2146193 L58.1885706,92.8320057 L55.4942141,96.980951 Z M90.9205574,42.4291661 L84.025546,42.4291661 L72.2167649,60.6130944 L76.3724989,60.6130944 L76.3724989,64.8312116 L58.1885706,92.8320057 L58.1885706,82.2146193 L72.2167649,60.6130944 L79.1117763,60.6130944 L90.9205574,42.4291661 Z M93.8487705,42.4291661 L97.3518419,42.4291661 L84.8583321,60.6130944 L82.0399894,60.6130944 L93.8487705,42.4291661 Z M45.7214719,96.9032151 C43.1739095,96.7597955 40.6789073,96.4197185 38.2514027,95.8979216 L49.3568563,78.7970227 L57.4797707,78.7970227 L48.4904755,92.6393235 L48.4904755,80.1311321 L48.4904755,80.1311321 L48.4904755,92.6393235 L45.7214719,96.9032151 Z M81.097333,42.4291661 L72.9744185,42.4291661 L58.1885706,65.1973753 L58.1885706,77.7055666 L69.2885519,60.6130944 L61.1656374,60.6130944 L61.1656374,60.6130944 L69.2885519,60.6130944 L81.097333,42.4291661 Z M35.7228493,95.2824997 C33.7895414,94.7562166 31.9042967,94.1133172 30.0751386,93.3618251 L40.2668288,77.6679984 C42.259491,78.2284905 44.3353274,78.5903466 46.4716182,78.7308471 L35.7228493,95.2824997 Z M70.0462055,42.4291661 L63.1511941,42.4291661 L51.342413,60.6130944 L58.2374244,60.6130944 L58.2374244,60.6130944 L58.1885706,60.6130944 L58.1885706,60.6883226 L58.2374244,60.6130944 Z M27.7992176,92.3573834 C11.3680239,84.5934611 -2.84217094e-14,67.8695404 -2.84217094e-14,48.4904755 C-2.84217094e-14,21.7099254 21.7099254,0 48.4904755,0 L48.4904755,18.1839283 C31.7526317,18.1839283 18.1839283,31.7526317 18.1839283,48.4904755 C18.1839283,61.4849035 26.3620517,72.5692284 37.8521197,76.8772716 L27.7992176,92.3573834 Z M60.222981,42.4291661 L48.4904755,42.4291661 L36.4984299,60.6130944 L48.4141999,60.6130944 L60.222981,42.4291661 Z M48.4904755,0 L84.8583321,0 L73.1675704,18.1839283 L48.4904755,18.1839283 L48.4904755,0 Z" id="Combined-Shape" fill="url(#linearGradient-1)"></path>
    </g>
</svg>